PathFileType	4	(X/Y/Z)	TVC_60_BWA01_walk_RCNL2025.trc
DataRate	CameraRate	NumFrames	NumMarkers	Units	OrigDataRate	OrigDataStartFrame	OrigNumFrames
100	100	9	27	mm	100	1	384
Frame#	Time	R_Shoulder			L_Shoulder			C7			J_Notch			R_Elbow			L_Elbow			R_Wrist			L_Wrist			R_Asis			L_Asis			R_Psis			L_Psis			Sacral			Thoracic			Sternum			R_Thigh_Lateral			R_Knee_Lateral			R_Shank_Lateral			R_Ankle_Lateral			R_Heel			R_Toe			L_Thigh_Lateral			L_Knee_Lateral			L_Shank_Lateral			L_Ankle_Lateral			L_Heel			L_Toe		
		X1	Y1	Z1	X2	Y2	Z2	X3	Y3	Z3	X4	Y4	Z4	X5	Y5	Z5	X6	Y6	Z6	X7	Y7	Z7	X8	Y8	Z8	X9	Y9	Z9	X10	Y10	Z10	X11	Y11	Z11	X12	Y12	Z12	X13	Y13	Z13	X14	Y14	Z14	X15	Y15	Z15	X16	Y16	Z16	X17	Y17	Z17	X18	Y18	Z18	X19	Y19	Z19	X20	Y20	Z20	X21	Y21	Z21	X22	Y22	Z22	X23	Y23	Z23	X24	Y24	Z24	X25	Y25	Z25	X26	Y26	Z26	X27	Y27	Z27
1	0.00000000	-1125.804810	1295.416504	56.032772	-1151.312622	1317.415649	-295.282715	-1198.009155	1374.983398	-118.466988	-1089.208862	1244.105469	-123.678947	-1092.748291	967.371338	148.705811	-1215.402710	976.619263	-346.855286	-929.301666	793.801178	140.263897	-1143.041870	757.054993	-395.691620	-1107.964355	892.584839	29.436344	-1112.408569	887.671875	-260.619659	-1286.413818	887.076599	-53.295029	-1287.290161	879.906067	-161.775742	-1286.851990	883.491333	-107.535385	-1256.044434	1168.068359	-118.912949	-1063.331177	1050.220703	-114.097946	-1184.182739	579.117676	91.825775	-1223.093018	423.095367	9.912904	-1317.043213	223.090012	35.026733	-1399.680054	73.252457	-41.359554	-1441.599365	78.984329	-89.566841	-1277.161133	39.330215	-45.621822	-1076.379883	617.277832	-325.156464	-977.212463	456.634491	-253.714417	-947.659973	267.543396	-289.405273	-888.481201	68.912491	-218.222580	-929.195862	58.860958	-172.053223	-759.625244	86.505470	-216.727631
2	0.01000000	-1117.130615	1294.822632	54.575569	-1143.328735	1317.039917	-296.852448	-1189.427124	1374.743896	-119.957687	-1080.262085	1244.093872	-125.490387	-1082.990356	967.027771	147.155853	-1207.145264	976.178467	-347.649231	-919.794067	793.109589	139.005920	-1135.348816	756.462616	-396.474213	-1096.646484	892.301941	28.208780	-1101.309448	886.715149	-261.928131	-1275.172363	886.208252	-55.372990	-1275.939453	878.731689	-163.900024	-1275.555908	882.469971	-109.636507	-1246.151978	1167.133789	-120.282730	-1053.226318	1050.083740	-115.809341	-1178.295776	579.530884	91.212616	-1218.662354	423.882019	9.545490	-1314.927002	224.915863	35.100494	-1399.196533	75.609955	-41.054947	-1441.000488	82.007607	-89.246109	-1277.013306	39.608280	-45.293335	-1068.527832	614.195862	-325.226227	-967.533142	454.550110	-253.797516	-940.064575	264.979858	-288.454437	-886.113586	65.937073	-217.043167	-927.534424	57.119396	-171.237427	-757.685303	79.572617	-213.856613
3	0.02000000	-1108.353760	1294.390503	53.079788	-1135.309570	1316.803345	-298.440552	-1180.800415	1374.603638	-121.462135	-1071.271118	1244.208618	-127.326530	-1073.452759	966.789734	145.568771	-1198.835938	975.860962	-348.481659	-910.631134	792.431274	137.759544	-1127.540039	756.014343	-397.316574	-1085.337158	892.096619	26.865757	-1090.243774	885.995667	-263.265503	-1263.956909	885.488464	-57.378384	-1264.654419	877.784058	-165.964859	-1264.305664	881.636261	-111.671621	-1236.278198	1166.344604	-121.649002	-1043.082886	1050.129395	-117.577858	-1171.850220	579.982300	90.551285	-1213.525269	424.622131	9.268204	-1312.396362	226.901306	35.230343	-1398.425903	78.220711	-40.624111	-1440.104980	85.342339	-88.787704	-1276.731689	39.864193	-44.958042	-1060.691772	611.495056	-325.371429	-957.856689	452.746490	-253.972260	-932.560425	262.710693	-287.643066	-883.749695	63.396004	-215.957352	-925.802185	55.761429	-170.486710	-755.623596	73.225922	-211.246078
4	0.03000000	-1099.474365	1294.119995	51.545494	-1127.255005	1316.705566	-300.046936	-1172.129028	1374.562256	-122.980293	-1062.235962	1244.449707	-129.187302	-1064.135376	966.657104	143.944672	-1190.474609	975.666748	-349.352539	-901.812775	791.766235	136.524746	-1119.615601	755.710175	-398.218674	-1074.036987	891.968933	25.407593	-1079.212402	885.513428	-264.631958	-1252.768066	884.917175	-59.311230	-1253.435425	877.062866	-167.970169	-1253.101746	880.990021	-113.640699	-1226.423340	1165.700806	-123.011772	-1032.901367	1050.357178	-119.403290	-1164.844971	580.471619	89.842598	-1207.680542	425.315216	9.081024	-1309.447266	229.046249	35.416924	-1397.365112	81.085007	-40.067757	-1438.908325	88.989891	-88.193092	-1276.316162	40.096439	-44.616795	-1052.839478	609.193481	-325.598175	-948.183838	451.223053	-254.239044	-925.151062	260.735321	-286.972168	-881.393494	61.286503	-214.965240	-924.004028	54.782600	-169.801514	-753.447876	67.472244	-208.896851
5	0.04000000	-1090.492554	1294.010498	49.972893	-1119.164551	1316.746216	-301.671356	-1163.412964	1374.619751	-124.512077	-1053.156860	1244.816406	-131.072418	-1055.038452	966.629639	142.283737	-1182.061401	975.595459	-350.262024	-893.338898	791.114471	135.301491	-1111.575317	755.549744	-399.180511	-1062.747925	891.919067	23.835238	-1068.216675	885.268066	-266.028076	-1241.607178	884.494019	-61.171619	-1242.283569	876.567383	-169.915710	-1241.945374	880.530701	-115.543665	-1216.587524	1165.202148	-124.371033	-1022.682922	1050.766235	-121.285004	-1157.277588	580.997681	89.089081	-1201.125122	425.959930	8.983853	-1306.069336	231.350800	35.662292	-1396.005737	84.203560	-39.387962	-1437.397705	92.953979	-87.466248	-1275.766113	40.301197	-44.272018	-1044.888550	607.334351	-325.921570	-938.517517	449.977203	-254.598648	-917.846741	259.051514	-286.444031	-879.056946	59.600086	-214.067184	-922.153748	54.169739	-169.183212	-751.180481	62.327316	-206.810165
6	0.05000000	-1081.408936	1294.061035	48.362411	-1111.037354	1316.924316	-303.313354	-1154.652344	1374.775635	-126.057312	-1044.034180	1245.307495	-132.981308	-1046.161743	966.706909	140.586426	-1173.596069	975.646545	-351.210266	-885.209045	790.475952	134.089718	-1103.419250	755.532379	-400.202072	-1051.474121	891.947510	22.150743	-1057.260132	885.258789	-267.454834	-1230.477051	884.218262	-62.959835	-1231.200806	876.295776	-171.801117	-1230.838928	880.257019	-117.380476	-1206.771484	1164.848022	-125.726807	-1012.430115	1051.354126	-123.221634	-1149.144897	581.558533	88.295784	-1193.853516	426.553711	8.976330	-1302.245117	233.815720	35.970989	-1394.330933	87.577950	-38.588974	-1435.548096	97.241432	-86.615204	-1275.081421	40.471939	-43.928467	-1036.692261	605.986206	-326.366791	-928.866272	449.001953	-255.052017	-910.669128	257.653076	-286.062317	-876.763672	58.318523	-213.263474	-920.278809	53.895744	-168.634369	-748.865662	57.814240	-204.986115
7	0.06000000	-1072.224854	1294.269531	46.714832	-1102.871704	1317.238281	-304.972107	-1145.847778	1375.028687	-127.615692	-1034.869019	1245.920532	-134.912888	-1037.505371	966.887817	138.853500	-1165.078369	975.818726	-352.197540	-877.422516	789.850647	132.889317	-1095.147034	755.656799	-401.283218	-1040.222412	892.054810	20.357788	-1046.348389	885.483276	-268.913422	-1219.382324	884.088196	-64.676559	-1220.190308	876.244690	-173.625977	-1219.786316	880.166443	-119.151268	-1196.976196	1164.637695	-127.079132	-1002.147095	1052.116699	-125.210747	-1140.443481	582.150391	87.470406	-1185.857178	427.092590	9.057433	-1297.950562	236.442642	36.350460	-1392.314209	91.210899	-37.677635	-1433.319214	101.862053	-85.653145	-1274.262817	40.600193	-43.593498	-1028.049438	605.228760	-326.967743	-919.249084	448.282440	-255.599823	-903.654236	256.527039	-285.830872	-874.550293	57.410854	-212.553558	-918.421082	53.917061	-168.157715	-746.571350	53.955544	-203.420975
8	0.07000000	-1062.942383	1294.632935	45.031414	-1094.664917	1317.684937	-306.646362	-1136.999634	1375.377441	-129.186752	-1025.662842	1246.651733	-136.865387	-1029.068970	967.170837	137.086151	-1156.508057	976.110168	-353.224396	-869.978180	789.238434	131.700188	-1086.758545	755.920929	-402.423859	-1029.003174	892.241821	18.462162	-1035.489746	885.937256	-270.405182	-1208.330200	884.101196	-66.323082	-1209.256958	876.408752	-175.390091	-1208.793579	880.254974	-120.856586	-1187.203125	1164.569336	-128.428146	-991.840393	1053.047485	-127.248528	-1131.171753	582.767700	86.622849	-1177.125000	427.571198	9.224798	-1293.156128	239.233551	36.810219	-1389.917603	95.106453	-36.663414	-1430.653320	106.827957	-84.598541	-1273.313110	40.677456	-43.276741	-1018.741882	605.127625	-327.764587	-909.701050	447.792786	-256.242035	-896.853394	255.651108	-285.751343	-872.462952	56.833237	-211.934875	-916.632568	54.175991	-167.753967	-744.380859	50.760929	-202.105545
9	0.08000000	-1053.564941	1295.146362	43.313999	-1086.413818	1318.260132	-308.334442	-1128.108765	1375.819702	-130.769806	-1016.417725	1247.495850	-138.836288	-1020.852295	967.553589	135.286057	-1147.884399	976.517822	-354.291534	-862.874146	788.638977	130.522221	-1078.253418	756.321533	-403.623764	-1017.829956	892.509460	16.472198	-1024.694824	886.613586	-271.931183	-1197.330078	884.253113	-67.901573	-1198.406860	876.780029	-177.093735	-1197.868469	880.516571	-122.497654	-1177.454468	1164.640625	-129.774048	-981.518738	1054.136597	-129.329559	-1121.331543	583.402405	85.764328	-1167.643677	427.983124	9.473800	-1287.827881	242.190170	37.359642	-1387.092285	99.270210	-35.557816	-1427.476685	112.152939	-83.473778	-1272.238037	40.698170	-42.989197	-1008.592896	605.708557	-328.797577	-900.278320	447.494843	-256.977478	-890.330261	254.993103	-285.820374	-870.549438	56.531898	-211.402298	-914.966919	54.607151	-167.420242	-742.377136	48.217045	-201.025223
